<?xml version="1.0" standalone="no"?>
<!DOCTYPE svg PUBLIC "-//W3C//DTD SVG 20010904//EN"
 "http://www.w3.org/TR/2001/REC-SVG-20010904/DTD/svg10.dtd">
<svg version="1.0" xmlns="http://www.w3.org/2000/svg"
 width="199.000000pt" height="199.000000pt" viewBox="0 0 199.000000 199.000000"
 preserveAspectRatio="xMidYMid meet">
<metadata>
Created by potrace 1.11, written by Peter Selinger 2001-2013
</metadata>
<g transform="translate(0.000000,199.000000) scale(0.100000,-0.100000)"
fill="#000000" stroke="none">
<path d="M579 1559 c-239 -65 -428 -256 -514 -518 -34 -103 -43 -160 -43 -264
0 -175 53 -276 176 -334 48 -23 64 -25 146 -21 80 3 101 8 169 41 93 44 179
108 237 177 62 74 40 102 -41 51 -15 -9 -45 -40 -68 -69 -23 -28 -58 -63 -79
-77 -93 -61 -218 -51 -304 25 -126 111 -137 362 -25 614 82 186 192 286 331
302 163 19 190 -51 92 -243 -33 -65 -33 -73 1 -67 62 11 94 44 140 140 47 100
63 177 43 213 -27 52 -136 64 -261 30z"/>
<path d="M1320 1565 c-52 -19 -152 -74 -174 -95 -39 -38 9 -45 74 -10 19 10
21 10 17 -7 -3 -10 -8 -39 -12 -64 -3 -25 -8 -57 -10 -70 -2 -13 -6 -40 -9
-59 -10 -65 -47 -254 -72 -365 -41 -179 -70 -273 -123 -388 -36 -78 -37 -87
-13 -87 32 0 96 45 117 82 l21 36 16 -27 c9 -17 40 -40 74 -57 51 -25 71 -29
144 -29 96 0 123 4 214 35 134 44 263 147 313 248 21 43 26 69 27 125 0 80
-19 129 -70 181 -28 28 -125 79 -151 79 -25 0 -12 12 44 42 73 38 163 109 195
155 53 75 61 141 23 205 -35 60 -80 80 -180 79 -132 0 -251 -56 -371 -171 -35
-35 -66 -63 -68 -63 -2 0 0 17 4 38 5 20 12 64 16 97 13 111 13 113 -46 90z
m443 -89 c53 -22 87 -70 87 -122 0 -106 -63 -159 -283 -238 -102 -36 -157 -68
-157 -91 0 -9 20 -13 78 -12 106 1 173 -23 232 -82 48 -49 70 -100 70 -167 0
-118 -68 -203 -191 -238 -130 -37 -241 -14 -322 67 -21 21 -44 17 -98 -18
l-36 -23 29 71 c16 40 47 133 68 208 85 302 160 464 264 578 64 70 181 100
259 67z"/>
</g>
</svg>
